<?xml version="1.0" encoding="UTF-8"?>
<svg width="611px" height="129px" viewBox="0 0 611 129" version="1.1" xmlns="http://www.w3.org/2000/svg" xmlns:xlink="http://www.w3.org/1999/xlink">
    <!-- Generator: Sketch 43.2 (39069) - http://www.bohemiancoding.com/sketch -->
    <title>logo</title>
    <desc>Created with Sketch.</desc>
    <defs></defs>
    <g id="Page-1" stroke="none" stroke-width="1" fill="none" fill-rule="evenodd">
        <g id="01---Cover" transform="translate(-116.000000, -233.000000)">
            <g id="logo" transform="translate(116.000000, 233.000000)">
                <path d="M91.3614,29.0749 C91.3614,36.8759 85.0414,43.1959 77.2484,43.1959 C69.4474,43.1959 63.1274,36.8759 63.1274,29.0749 C63.1274,21.2779 69.4474,14.9599 77.2484,14.9599 C85.0414,14.9599 91.3614,21.2779 91.3614,29.0749" id="Fill-1" fill="#F9A825"></path>
                <path d="M151.92,3.9186 C146.236,-1.4464 137.342,-1.2654 131.861,4.2346 L131.846,4.2276 C131.799,4.2776 131.762,4.3266 131.717,4.3796 C131.67,4.4226 131.621,4.4616 131.58,4.5006 C131.217,4.8876 130.883,5.2916 130.572,5.7096 C122.24,15.8326 128.848,23.0226 119.006,33.4476 C109.238,43.7996 101.721,37.7686 92.19,46.3756 C91.766,46.7346 91.361,47.1066 90.975,47.5146 C90.91,47.5866 90.857,47.6606 90.795,47.7316 C90.717,47.8056 90.641,47.8636 90.565,47.9436 L90.596,47.9676 C89.781,48.9016 89.16,49.9266 88.631,50.9886 C88.553,51.1456 88.49,51.3056 88.416,51.4656 C88.145,52.0596 87.893,52.6526 87.709,53.2726 C87.586,53.6666 87.508,54.0746 87.42,54.4836 C87.33,54.9066 87.236,55.3246 87.186,55.7486 C87.115,56.2916 87.113,56.8446 87.107,57.4026 C87.107,57.7316 87.096,58.0596 87.119,58.3896 C87.131,58.5946 87.104,58.7936 87.125,58.9966 L87.096,59.0006 C87.113,59.1096 87.137,59.1996 87.154,59.3036 C87.166,59.3976 87.166,59.4846 87.186,59.5806 C87.266,60.1216 87.383,60.6516 87.524,61.1706 C90.383,73.4436 99.818,72.7936 101.891,86.6066 C103.988,100.5246 94.637,102.6136 95.674,115.4436 C95.697,115.9476 95.738,116.4576 95.815,116.9736 C95.826,117.0276 95.846,117.0906 95.85,117.1436 C95.861,117.2196 95.861,117.2706 95.873,117.3446 L95.891,117.3426 C97.229,124.8486 104.295,129.9756 111.875,128.8326 C119.463,127.6906 124.709,120.7156 123.775,113.1456 L123.795,113.1376 C123.781,113.0706 123.764,113.0166 123.752,112.9476 C123.746,112.8876 123.746,112.8286 123.74,112.7706 C123.658,112.2546 123.553,111.7546 123.424,111.2626 C120.641,98.7036 111.092,99.4536 108.992,85.5436 C107.332,74.4756 111.889,72.5276 114.729,63.4326 C117.568,54.3366 115.414,47.9186 124.334,38.4756 C134.178,28.0476 141.736,34.2316 151.367,25.3386 C151.76,24.9986 152.141,24.6456 152.504,24.2586 C152.545,24.2156 152.58,24.1646 152.621,24.1196 C152.674,24.0706 152.717,24.0356 152.768,23.9796 L152.756,23.9676 C157.936,18.1806 157.604,9.2876 151.92,3.9186" id="Fill-3" fill="#3F4E55"></path>
                <path d="M26.3399,57.8522 L3.4139,57.8522 L3.4139,74.9852 L23.9609,74.9852 C24.7559,74.9852 24.8789,75.1082 24.8789,75.5982 L24.8789,77.4262 C24.8789,77.9142 24.6939,78.0322 23.9609,78.0322 L3.4139,78.0322 L3.4139,95.2882 C3.4139,96.0242 3.4789,96.1432 2.9879,96.1432 L0.3649,96.1432 C-0.0001,96.1432 -0.0001,96.2072 -0.0001,95.2882 L-0.0001,55.3522 C-0.0001,55.1702 0.3649,54.8032 0.4259,54.8032 L26.2829,54.8032 C26.7679,54.8032 26.8929,54.9242 26.8929,55.4162 L26.8929,57.1202 C26.8929,57.6722 26.8279,57.8522 26.3399,57.8522" id="Fill-5" fill="#3F4E55"></path>
                <path d="M209.6231,97.1844 C199.8051,97.1844 193.5861,91.0824 193.5861,80.3524 L193.5861,55.2334 C193.5861,54.8034 193.6501,54.8034 194.0141,54.8034 L196.5741,54.8034 C197.0021,54.8034 197.0021,54.8034 197.0021,55.2934 L197.0021,80.3524 C197.0021,90.1084 201.8811,94.1294 209.6231,94.1294 C217.3671,94.1294 222.2461,90.1084 222.2461,80.3524 L222.2461,55.2334 C222.2461,54.8684 222.2461,54.8034 222.4881,54.8034 L225.2301,54.8034 C225.6581,54.8034 225.6581,54.8034 225.6581,55.2334 L225.6581,80.4144 C225.6581,91.0824 219.4411,97.1844 209.6231,97.1844" id="Fill-8" fill="#3F4E55"></path>
                <path d="M309.5274,97.1844 C301.5414,97.1844 295.6254,93.8294 293.3694,88.0944 C293.0024,87.1844 293.1234,87.1844 293.6114,86.9964 L295.8674,86.2054 C296.4164,85.9614 296.4164,86.1454 296.5414,86.5104 C298.2464,91.3294 303.0024,94.1964 309.2834,94.1964 C317.0864,94.1964 321.1114,91.2664 321.1114,86.0864 C321.1114,80.5344 316.8414,78.5864 309.7714,77.0594 C309.2204,76.9384 308.0034,76.6964 307.4554,76.5734 C299.7094,74.8054 294.5294,72.0004 294.5294,65.2314 C294.5294,58.5244 299.6504,53.9484 309.0994,53.9484 C317.3324,53.9484 321.9044,58.2194 323.6734,63.1594 C323.8534,63.7044 323.8534,63.8874 323.3084,64.1334 L321.4744,64.9244 C321.0524,65.1704 320.9294,65.0474 320.8104,64.7434 C319.0994,60.0474 315.3804,56.9364 308.9764,56.9364 C301.1114,56.9364 297.8204,60.2934 297.8204,64.8074 C297.8204,69.8684 302.1484,72.0614 308.4904,73.3994 C309.0414,73.5244 310.1974,73.7664 310.8064,73.8894 C318.3654,75.4734 324.4084,78.2784 324.4084,85.3524 C324.4084,93.3404 318.7964,97.1844 309.5274,97.1844" id="Fill-10" fill="#3F4E55"></path>
                <path d="M396.8692,96.1452 L394.6742,96.1452 C394.1852,96.1452 394.0642,96.0832 394.0642,95.5942 L394.0642,55.5362 C394.0642,54.8662 394.1852,54.8052 394.7362,54.8052 L396.9942,54.8052 C397.3592,54.8052 397.4782,54.9262 397.4782,55.5362 L397.4782,95.5942 C397.4782,96.0832 397.4202,96.1452 396.8692,96.1452" id="Fill-12" fill="#3F4E55"></path>
                <path d="M610.0293,96.7526 C609.5973,96.7526 609.3533,96.5706 609.1113,96.2666 C606.0643,92.5476 580.7593,62.1216 580.7593,62.1216 L580.7593,95.5946 C580.7593,96.0826 580.6993,96.1456 580.3343,96.1456 L577.8343,96.1456 C577.4653,96.1456 577.3413,96.0826 577.3413,95.5356 L577.3413,54.8056 C577.3413,54.4986 577.5883,54.3176 577.8963,54.3176 C578.2593,54.3176 578.5023,54.4386 578.8103,54.7446 C582.8343,59.1336 607.2833,89.0126 607.2833,89.0126 L607.2833,55.3546 C607.2833,54.8656 607.4063,54.8056 607.8303,54.8056 L610.2093,54.8056 C610.6383,54.8056 610.6973,54.9266 610.6973,55.5376 L610.6973,96.2036 C610.6973,96.5126 610.5133,96.7526 610.0293,96.7526" id="Fill-16" fill="#3F4E55"></path>
                <path d="M488.1094,97.1844 C475.7914,97.1844 466.4624,87.5474 466.4624,75.5984 C466.4624,63.6454 475.7914,53.9484 488.1094,53.9484 C500.4234,53.9484 509.7554,63.6454 509.7554,75.5984 C509.7554,87.5474 500.4234,97.1844 488.1094,97.1844 M488.1094,57.0004 C477.8654,57.0004 470.0024,65.4144 470.0024,75.5984 C470.0024,85.7784 477.9234,94.1294 488.1094,94.1294 C498.2874,94.1294 506.2164,85.7784 506.2164,75.5984 C506.2164,65.4144 498.3534,57.0004 488.1094,57.0004" id="Fill-14" fill="#3F4E55"></path>
            </g>
        </g>
    </g>
</svg>