<?xml version="1.0" encoding="UTF-8"?>
<svg width="1200px" height="480px" viewBox="0 0 1200 480" version="1.1" xmlns="http://www.w3.org/2000/svg" xmlns:xlink="http://www.w3.org/1999/xlink" style="background: #00A1E0;">
    <!-- Generator: Sketch 46 (44423) - http://www.bohemiancoding.com/sketch -->
    <title>sf</title>
    <desc>Created with Sketch.</desc>
    <defs></defs>
    <g id="Page-1" stroke="none" stroke-width="1" fill="none" fill-rule="evenodd">
        <g id="sf" fill-rule="nonzero" fill="#FFFFFF">
            <path d="M576.85453,315.114701 C585.755726,324.389402 598.148205,330.141368 611.853846,330.141368 C630.072991,330.141368 645.968547,319.982051 654.433333,304.900342 C661.789402,308.187179 669.931795,310.015385 678.498803,310.015385 C711.359316,310.015385 738,283.142735 738,249.995214 C738,216.843761 711.359316,189.971111 678.498803,189.971111 C674.488547,189.971111 670.568718,190.372137 666.778632,191.138803 C659.324274,177.842051 645.119316,168.858291 628.814872,168.858291 C621.989573,168.858291 615.533846,170.434872 609.785812,173.23812 C602.229231,155.463248 584.623419,143 564.104274,143 C542.735897,143 524.524615,156.520855 517.534188,175.483077 C514.479316,174.834359 511.314359,174.496239 508.066838,174.496239 C482.625299,174.496239 462,195.333846 462,221.042735 C462,238.271111 471.266838,253.313504 485.035385,261.361538 C482.200684,267.884103 480.624103,275.082906 480.624103,282.651282 C480.624103,312.217094 504.626667,336.184274 534.231795,336.184274 C551.613504,336.184274 567.060855,327.92 576.85453,315.114701" id="path3005"></path>
        </g>
    </g>
</svg>